<?xml version="1.0" standalone="no"?>
<!DOCTYPE svg PUBLIC "-//W3C//DTD SVG 20010904//EN"
 "http://www.w3.org/TR/2001/REC-SVG-20010904/DTD/svg10.dtd">
<svg version="1.0" xmlns="http://www.w3.org/2000/svg"
 width="1279.000000pt" height="1280.000000pt" viewBox="0 0 1279.000000 1280.000000"
 preserveAspectRatio="xMidYMid meet">

<g transform="translate(0.000000,1280.000000) scale(0.100000,-0.100000)"
fill="#000000" stroke="none">
<path d="M6410 11389 c-145 -9 -284 -24 -365 -39 -27 -5 -86 -14 -130 -20
-170 -23 -316 -58 -510 -120 -138 -45 -200 -67 -415 -145 -86 -32 -377 -173
-495 -240 -156 -90 -407 -262 -510 -350 -263 -225 -407 -359 -515 -480 -104
-117 -116 -130 -145 -170 -16 -22 -32 -42 -35 -45 -10 -8 -116 -153 -135 -185
-10 -16 -29 -41 -41 -55 -20 -24 -88 -132 -165 -264 -19 -32 -42 -70 -51 -85
-9 -14 -17 -32 -17 -39 -1 -7 -13 -31 -28 -55 -51 -78 -49 -75 -106 -197 -78
-168 -165 -404 -221 -600 -15 -52 -31 -108 -36 -125 -9 -31 -46 -213 -74 -365
-32 -177 -56 -467 -56 -690 0 -162 24 -473 39 -513 15 -39 43 -196 42 -237 0
-39 28 -186 58 -300 40 -151 52 -196 61 -220 5 -14 14 -44 20 -67 l11 -43
1119 0 1120 0 0 119 0 119 -110 26 c-63 14 -142 41 -183 62 -265 132 -440 390
-472 692 -10 97 21 377 57 512 17 63 34 132 39 152 11 48 109 306 150 395 77
170 224 448 311 587 75 118 227 343 242 355 44 37 120 11 152 -51 9 -18 23
-37 30 -41 8 -4 14 -13 14 -18 0 -6 10 -25 23 -42 12 -17 27 -39 32 -49 6 -9
46 -73 90 -143 104 -164 101 -159 212 -373 52 -102 113 -230 134 -286 22 -56
46 -114 54 -131 34 -71 102 -305 129 -445 9 -41 22 -138 30 -215 14 -123 14
-152 1 -240 -18 -125 -45 -209 -99 -305 -89 -160 -219 -281 -388 -364 -29 -14
-104 -38 -166 -53 l-112 -27 0 -118 0 -118 70 0 70 0 1 40 c1 22 3 45 4 50 1
6 3 17 4 25 2 23 27 18 39 -9 11 -25 32 -54 65 -88 16 -17 45 -18 572 -18
l555 0 0 95 c0 52 -2 95 -4 95 -2 0 -20 -7 -39 -15 -59 -25 -176 -20 -243 10
-120 53 -181 158 -172 294 9 121 29 145 349 426 19 17 95 84 169 149 74 66
164 144 199 175 35 31 78 70 96 86 18 17 52 46 76 66 44 37 52 44 165 148 196
179 279 225 459 256 94 16 179 11 293 -15 123 -29 209 -79 331 -190 64 -58
154 -136 166 -143 11 -6 14 28 17 170 3 194 7 207 67 270 56 58 83 67 226 71
114 3 137 1 187 -18 38 -14 68 -34 88 -58 59 -72 60 -82 60 -567 l0 -442 62
-54 c138 -119 213 -202 231 -254 21 -61 22 -125 2 -192 -22 -74 -84 -143 -160
-179 -60 -29 -181 -33 -238 -9 -20 8 -39 15 -42 15 -3 0 -5 -43 -5 -95 l0 -95
978 0 978 0 27 88 c141 464 197 832 197 1292 0 332 -20 542 -79 825 -11 55
-26 125 -32 155 -6 30 -17 75 -25 100 -18 59 -58 194 -58 200 -3 19 -72 216
-77 220 -4 3 -12 24 -19 47 -7 24 -21 50 -32 59 -10 10 -18 25 -18 34 0 9 -3
20 -7 24 -4 3 -8 17 -10 29 -7 50 -91 232 -185 397 -14 25 -37 67 -52 93 -25
47 -130 211 -160 252 -79 107 -171 230 -189 252 -355 422 -690 715 -1111 969
-78 47 -148 89 -156 94 -17 11 -258 130 -310 153 -191 86 -390 157 -617 221
-295 83 -575 127 -928 146 -208 11 -227 11 -425 -1z m623 -1715 c100 -35 164
-78 227 -151 114 -132 184 -357 130 -421 -36 -43 -106 -48 -138 -9 -7 8 -19
49 -27 92 -38 198 -144 305 -331 337 -65 11 -77 10 -137 -10 -101 -33 -169
-83 -227 -167 -15 -22 -31 -53 -35 -70 -13 -46 -11 -205 3 -251 28 -94 127
-188 239 -226 48 -16 118 -18 947 -18 l895 0 26 -23 c38 -33 44 -86 12 -123
l-25 -29 -924 0 c-1049 0 -974 -6 -1112 86 -113 74 -181 158 -226 278 -30 82
-34 232 -7 331 23 84 99 211 161 266 46 42 221 138 235 130 3 -3 22 0 41 4 59
15 197 2 273 -26z m984 -168 c102 -54 153 -137 153 -252 0 -129 -141 -146
-164 -19 -4 19 -11 35 -17 35 -6 0 -7 4 -4 10 10 15 -14 49 -48 70 -72 44
-179 12 -204 -60 -20 -57 -5 -112 45 -169 22 -24 31 -26 150 -32 70 -4 247 -8
393 -8 264 -1 266 -1 287 -24 35 -37 38 -79 9 -113 l-25 -29 -388 -3 c-327 -2
-394 0 -433 13 -217 72 -298 313 -165 491 44 60 55 70 104 95 68 36 79 38 160
35 65 -2 85 -8 147 -40z m-2202 -1364 c26 -18 120 -136 144 -180 27 -50 60
-105 150 -250 147 -236 360 -681 346 -721 -9 -24 -114 -104 -129 -98 -11 4
-76 150 -76 170 0 3 -40 88 -89 189 -95 197 -176 339 -309 542 l-84 128 -34
-51 c-19 -28 -41 -51 -48 -51 -7 0 -28 37 -46 85 l-33 84 32 50 c51 79 89 111
130 111 20 0 41 -4 46 -8z"/>
<path d="M8431 7496 c-21 -23 -22 -29 -20 -247 0 -123 5 -232 11 -242 10 -20
268 -247 279 -247 5 0 8 152 9 338 0 349 -4 393 -40 412 -10 6 -63 10 -118 10
-91 0 -100 -2 -121 -24z"/>
<path d="M7418 7344 c-98 -23 -167 -67 -323 -205 -82 -72 -179 -157 -214 -188
-35 -31 -71 -63 -80 -71 -32 -30 -370 -327 -466 -410 -54 -47 -132 -117 -172
-155 -65 -62 -73 -75 -73 -107 0 -48 13 -80 45 -112 22 -22 35 -26 83 -26 69
0 71 1 220 134 63 56 135 118 160 139 81 67 157 140 155 149 -2 4 4 8 12 8 8
0 15 5 15 11 0 5 4 8 10 4 5 -3 16 8 25 25 8 16 22 30 30 30 8 0 39 21 68 48
29 26 105 91 168 144 63 53 123 105 134 115 162 145 201 171 291 192 42 10 61
10 107 -2 60 -16 91 -37 207 -137 42 -36 102 -87 135 -115 79 -67 139 -119
145 -126 3 -3 57 -50 120 -104 63 -54 120 -103 126 -109 6 -6 39 -36 74 -66
35 -30 74 -64 86 -75 12 -11 48 -42 80 -70 32 -27 83 -72 113 -99 101 -88 123
-99 190 -94 62 4 78 14 105 65 20 39 20 75 1 112 -14 27 -129 133 -345 316
-58 49 -107 92 -110 95 -3 3 -45 41 -95 85 -49 44 -92 82 -95 85 -17 18 -366
325 -415 365 -33 28 -68 57 -78 66 -28 26 -120 69 -178 84 -67 18 -186 18
-261 -1z"/>
<path d="M7470 6497 c-148 -33 -240 -183 -213 -344 14 -80 58 -143 137 -198
56 -39 58 -39 144 -39 141 1 220 50 283 172 33 64 34 196 2 258 -63 120 -211
183 -353 151z m182 -159 c22 -18 44 -43 49 -56 24 -63 -2 -167 -51 -202 -61
-44 -160 -38 -214 13 -59 56 -62 170 -5 228 66 68 149 74 221 17z"/>
<path d="M3744 5336 c-7 -18 17 -65 50 -95 34 -32 107 -38 150 -11 40 24 83
97 67 113 -8 8 -21 -1 -49 -31 -21 -23 -37 -43 -36 -45 2 -2 -13 -4 -33 -5
-20 -2 -39 -5 -43 -7 -3 -2 -24 18 -45 46 -42 52 -52 58 -61 35z"/>
<path d="M3123 5170 c-108 -25 -185 -118 -214 -257 -22 -107 16 -248 87 -318
48 -48 94 -65 178 -65 102 0 166 33 223 115 52 73 67 136 61 246 -7 144 -71
241 -180 274 -55 16 -103 18 -155 5z m146 -75 c83 -61 104 -111 105 -245 0
-77 -4 -104 -23 -145 -41 -91 -88 -125 -176 -125 -54 0 -58 2 -104 48 -61 61
-85 128 -85 232 1 86 22 144 75 204 40 46 59 55 125 55 38 1 58 -5 83 -24z"/>
<path d="M5451 5171 c-83 -21 -166 -114 -198 -221 -33 -112 1 -276 73 -354 61
-65 176 -85 281 -50 126 42 206 209 183 377 -16 111 -64 188 -140 227 -43 22
-149 33 -199 21z m184 -103 c58 -64 79 -134 73 -247 -3 -75 -8 -94 -34 -136
-16 -26 -47 -62 -67 -79 -50 -40 -126 -43 -180 -6 -67 46 -105 134 -106 243
-1 103 14 157 57 208 47 55 83 70 156 66 56 -3 62 -6 101 -49z"/>
<path d="M8262 5168 c-26 -13 -73 -82 -128 -188 -21 -41 -43 -78 -49 -83 -18
-13 -80 -3 -81 13 -1 8 -2 70 -2 138 l-2 122 -41 0 -42 0 7 -37 c3 -21 6 -165
6 -320 l0 -283 40 0 41 0 -7 135 c-8 151 -3 165 51 165 30 0 37 -6 66 -57 18
-32 38 -65 45 -73 7 -8 27 -42 45 -75 45 -85 53 -92 105 -94 54 -2 54 1 -5 88
-89 130 -151 229 -151 241 0 14 72 150 103 195 28 40 48 54 75 55 23 0 26 9
16 48 -5 17 -13 22 -38 21 -17 0 -41 -5 -54 -11z"/>
<path d="M2074 5154 c3 -9 6 -153 6 -320 l0 -304 41 0 42 0 -7 168 c-7 157 -1
272 13 272 3 0 19 -22 34 -50 15 -27 33 -55 40 -62 17 -17 108 -143 142 -195
15 -24 31 -43 35 -43 10 0 172 253 201 313 27 54 46 52 46 -6 0 -23 0 -122 1
-220 l2 -178 38 3 c22 2 37 8 36 16 -1 6 -2 149 -2 317 -2 299 -2 305 -22 305
-15 0 -37 -26 -80 -92 -32 -51 -63 -98 -68 -104 -5 -5 -20 -30 -34 -55 -39
-68 -108 -169 -116 -169 -4 0 -29 33 -55 73 -26 40 -75 110 -108 157 -32 47
-75 109 -95 138 -30 43 -41 52 -66 52 -23 0 -29 -4 -24 -16z"/>
<path d="M3614 5139 c3 -17 6 -161 6 -320 l0 -289 33 0 c43 0 46 3 112 100 32
47 61 87 64 90 7 6 181 267 197 295 30 54 34 29 34 -229 l0 -256 41 0 42 0 -7
61 c-3 34 -6 178 -6 320 l0 259 -35 0 c-24 0 -39 -7 -50 -22 -67 -92 -293
-421 -311 -453 -13 -22 -27 -40 -30 -40 -4 0 -6 116 -5 258 l2 257 -47 0 -46
0 6 -31z"/>
<path d="M4676 5083 c8 -117 -11 -298 -44 -398 -14 -44 -30 -83 -35 -86 -4 -3
-19 -4 -33 -1 l-24 4 0 -110 0 -110 30 -4 c17 -3 32 -2 35 0 3 3 5 36 5 73 0
55 3 70 18 77 9 4 107 8 217 7 l200 0 5 -80 c5 -85 2 -81 61 -77 20 2 21 6 15
70 -3 37 -6 86 -6 110 0 41 -1 42 -35 42 l-35 0 0 279 0 278 -37 7 c-21 3
-107 6 -191 6 l-153 0 7 -87z m299 -228 l0 -250 -142 -3 c-79 -1 -143 0 -143
3 0 3 9 31 19 63 23 68 41 217 41 340 0 49 3 92 7 96 4 3 54 5 112 4 l106 -3
0 -250z"/>
<path d="M5953 4853 l2 -318 34 0 33 0 -1 217 c-1 137 2 218 8 222 6 4 22 -15
36 -41 25 -48 90 -143 104 -153 4 -3 29 -38 56 -78 57 -86 64 -92 82 -66 40
55 183 289 183 299 0 15 39 51 42 39 0 -5 2 -106 2 -224 l1 -215 38 0 38 0 -1
309 c0 170 -3 313 -6 317 -3 5 -13 9 -22 9 -19 0 -46 -39 -165 -234 -83 -135
-117 -186 -126 -186 -3 0 -24 28 -46 63 -22 34 -67 99 -100 144 -33 45 -80
111 -105 147 -32 47 -51 66 -67 66 l-21 0 1 -317z"/>
<path d="M7108 4853 c2 -175 6 -320 8 -322 3 -3 59 0 125 6 108 9 125 14 162
40 52 35 77 83 77 146 0 63 -23 111 -66 138 -19 11 -34 25 -34 30 0 4 15 29
32 54 53 75 41 142 -36 199 -23 18 -45 21 -149 24 l-122 4 3 -319z m233 230
c36 -33 42 -72 22 -133 l-16 -51 -81 3 -81 3 -3 94 c-1 52 0 101 3 109 9 24
124 6 156 -25z m-16 -243 c56 -21 89 -84 75 -143 -17 -79 -53 -104 -160 -109
l-55 -3 -3 119 c-1 66 0 126 2 133 6 16 102 18 141 3z"/>
<path d="M8504 5109 c3 -34 6 -178 6 -320 l0 -259 39 0 38 0 -1 123 -1 122 35
3 c91 7 142 24 182 60 52 47 68 80 68 142 0 53 -23 112 -57 142 -29 27 -129
48 -227 48 l-89 0 7 -61z m246 -34 c59 -56 57 -140 -4 -200 -25 -26 -42 -33
-89 -39 -32 -3 -63 -4 -68 -1 -11 7 -12 258 -1 269 4 4 35 6 69 4 53 -3 68 -9
93 -33z"/>
<path d="M9053 4853 l2 -318 80 2 c170 5 220 20 268 85 33 44 35 132 5 188
-35 65 -73 87 -166 96 -42 3 -84 8 -92 9 -12 1 -16 25 -18 128 l-3 127 -39 0
-39 0 2 -317z m217 -7 c72 -26 99 -109 61 -193 -22 -48 -58 -63 -148 -63 l-53
0 0 135 0 135 53 -1 c28 0 68 -6 87 -13z"/>
<path d="M9544 5124 c3 -26 6 -170 6 -320 l0 -274 41 0 42 0 -6 83 c-4 45 -7
189 -7 320 l0 237 -41 0 -42 0 7 -46z"/>
<path d="M9844 5133 c3 -21 6 -165 6 -320 l0 -283 35 0 35 0 0 225 c0 124 4
225 9 225 5 0 14 -14 21 -30 10 -25 103 -164 137 -205 5 -5 29 -38 55 -72 l46
-62 38 62 c20 34 50 78 65 98 15 19 49 77 75 127 25 51 51 92 55 92 5 0 9
-103 9 -230 l0 -230 42 0 41 0 -7 317 c-4 175 -9 320 -12 322 -13 13 -66 -48
-124 -145 -37 -60 -86 -139 -111 -176 -24 -37 -49 -74 -55 -84 -9 -15 -12 -15
-23 -3 -17 19 -169 234 -234 331 -45 66 -56 77 -81 78 -28 0 -28 -1 -22 -37z"/>
<path d="M10650 5166 c0 0 54 -109 121 -240 77 -155 119 -248 117 -264 -4 -36
-47 -63 -104 -68 -27 -2 -50 -3 -51 -4 -1 0 3 -14 9 -30 12 -37 41 -45 99 -30
85 23 109 59 252 395 47 110 88 210 92 223 8 26 -9 30 -24 5 -10 -17 -10 -17
-11 0 -1 68 -89 -94 -170 -313 -29 -79 -44 -95 -55 -58 -4 13 -47 104 -96 203
l-88 179 -46 2 c-25 1 -45 1 -45 0z m427 -178 c-3 -8 -6 -5 -6 6 -1 11 2 17 5
13 3 -3 4 -12 1 -19z"/>
<path d="M3767 3988 c20 -18 69 -65 108 -103 38 -39 88 -84 110 -100 22 -17
42 -32 45 -35 3 -3 21 -17 40 -30 19 -13 37 -27 40 -30 12 -15 118 -90 127
-90 5 0 18 -9 27 -19 10 -11 32 -27 49 -36 40 -20 63 -34 104 -62 17 -13 34
-23 37 -23 3 0 36 -19 73 -42 295 -182 819 -384 1198 -462 376 -78 619 -101
1000 -93 152 3 323 12 391 21 134 18 443 77 514 100 25 7 81 21 125 31 44 9
145 39 224 66 80 27 146 49 147 49 1 0 9 6 16 13 13 12 101 50 148 62 14 4 34
12 45 19 11 7 40 18 65 26 46 14 133 58 184 94 17 11 26 14 21 6 -5 -8 5 -4
22 8 17 12 38 22 46 22 8 0 29 13 46 29 16 15 33 26 36 22 4 -3 11 2 16 12 6
9 17 17 25 17 8 0 12 4 9 10 -3 5 0 10 8 10 19 0 101 46 155 87 24 18 50 33
57 33 7 0 15 3 17 8 4 9 65 52 74 52 4 0 17 10 29 23 30 31 65 58 65 51 0 -4
12 5 26 20 15 14 31 26 35 26 5 0 17 8 27 18 10 9 47 42 81 72 35 30 77 68 95
84 17 15 45 37 61 47 29 19 -23 19 -2888 19 l-2918 0 38 -32z"/>
<path d="M0 10 c0 -7 2138 -10 6395 -10 4257 0 6395 3 6395 10 0 7 -2138 10
-6395 10 -4257 0 -6395 -3 -6395 -10z"/>
</g>
</svg>
